<svg width="465" height="465" viewBox="0 0 465 465" fill="none" xmlns="http://www.w3.org/2000/svg">
<g id="Frame 7">
<g id="Group 21">
<g id="Group 17">
<circle id="Ellipse 4" cx="85" cy="97" r="60" fill="#F4DBF1"/>
<path id="newspaper" d="M71.3333 112C70.4167 112 69.6319 111.674 68.9792 111.021C68.3264 110.368 68 109.583 68 108.667V82L70.7917 84.7917L73.5417 82L76.3333 84.7917L79.125 82L81.875 84.7917L84.6667 82L87.4583 84.7917L90.2083 82L93 84.7917L95.7917 82L98.5417 84.7917L101.333 82V108.667C101.333 109.583 101.007 110.368 100.354 111.021C99.7014 111.674 98.9167 112 98 112H71.3333ZM71.3333 108.667H83V98.6667H71.3333V108.667ZM86.3333 108.667H98V105.333H86.3333V108.667ZM86.3333 102H98V98.6667H86.3333V102ZM71.3333 95.3333H98V90.3333H71.3333V95.3333Z" fill="black"/>
</g>
<g id="Group 18">
<circle id="Ellipse 4_2" cx="367.5" cy="381.5" r="46.5" fill="#FFDCBF"/>
<path id="calendar_month" d="M356.333 398.333C355.417 398.333 354.632 398.007 353.979 397.354C353.326 396.701 353 395.917 353 395V371.667C353 370.75 353.326 369.965 353.979 369.313C354.632 368.66 355.417 368.333 356.333 368.333H358V365H361.333V368.333H374.667V365H378V368.333H379.667C380.583 368.333 381.368 368.66 382.021 369.313C382.674 369.965 383 370.75 383 371.667V395C383 395.917 382.674 396.701 382.021 397.354C381.368 398.007 380.583 398.333 379.667 398.333H356.333ZM356.333 395H379.667V378.333H356.333V395ZM356.333 375H379.667V371.667H356.333V375ZM368 385C367.528 385 367.132 384.84 366.813 384.521C366.493 384.201 366.333 383.806 366.333 383.333C366.333 382.861 366.493 382.465 366.813 382.146C367.132 381.826 367.528 381.667 368 381.667C368.472 381.667 368.868 381.826 369.188 382.146C369.507 382.465 369.667 382.861 369.667 383.333C369.667 383.806 369.507 384.201 369.188 384.521C368.868 384.84 368.472 385 368 385ZM361.333 385C360.861 385 360.465 384.84 360.146 384.521C359.826 384.201 359.667 383.806 359.667 383.333C359.667 382.861 359.826 382.465 360.146 382.146C360.465 381.826 360.861 381.667 361.333 381.667C361.806 381.667 362.201 381.826 362.521 382.146C362.84 382.465 363 382.861 363 383.333C363 383.806 362.84 384.201 362.521 384.521C362.201 384.84 361.806 385 361.333 385ZM374.667 385C374.194 385 373.799 384.84 373.479 384.521C373.16 384.201 373 383.806 373 383.333C373 382.861 373.16 382.465 373.479 382.146C373.799 381.826 374.194 381.667 374.667 381.667C375.139 381.667 375.535 381.826 375.854 382.146C376.174 382.465 376.333 382.861 376.333 383.333C376.333 383.806 376.174 384.201 375.854 384.521C375.535 384.84 375.139 385 374.667 385ZM368 391.667C367.528 391.667 367.132 391.507 366.813 391.188C366.493 390.868 366.333 390.472 366.333 390C366.333 389.528 366.493 389.132 366.813 388.813C367.132 388.493 367.528 388.333 368 388.333C368.472 388.333 368.868 388.493 369.188 388.813C369.507 389.132 369.667 389.528 369.667 390C369.667 390.472 369.507 390.868 369.188 391.188C368.868 391.507 368.472 391.667 368 391.667ZM361.333 391.667C360.861 391.667 360.465 391.507 360.146 391.188C359.826 390.868 359.667 390.472 359.667 390C359.667 389.528 359.826 389.132 360.146 388.813C360.465 388.493 360.861 388.333 361.333 388.333C361.806 388.333 362.201 388.493 362.521 388.813C362.84 389.132 363 389.528 363 390C363 390.472 362.84 390.868 362.521 391.188C362.201 391.507 361.806 391.667 361.333 391.667ZM374.667 391.667C374.194 391.667 373.799 391.507 373.479 391.188C373.16 390.868 373 390.472 373 390C373 389.528 373.16 389.132 373.479 388.813C373.799 388.493 374.194 388.333 374.667 388.333C375.139 388.333 375.535 388.493 375.854 388.813C376.174 389.132 376.333 389.528 376.333 390C376.333 390.472 376.174 390.868 375.854 391.188C375.535 391.507 375.139 391.667 374.667 391.667Z" fill="black"/>
</g>
<g id="Group 20">
<circle id="Ellipse 4_3" cx="69.5" cy="224.5" r="24.5" fill="#FFDAD5"/>
</g>
<circle id="Ellipse 5" cx="265" cy="97" r="20" fill="#D5FFE6"/>
<circle id="Ellipse 4_4" cx="125" cy="378" r="20" fill="#FFDAD5"/>
<circle id="Ellipse 6" cx="401" cy="281" r="20" fill="#D5D9FF"/>
<g id="Group 19">
<circle id="Ellipse 4_5" cx="403" cy="145" r="38" fill="#D5E8D0"/>
<path id="scoreboard" d="M408.5 151.667C408.028 151.667 407.632 151.507 407.313 151.188C406.993 150.868 406.833 150.472 406.833 150V143.333C406.833 142.861 406.993 142.465 407.313 142.146C407.632 141.826 408.028 141.667 408.5 141.667H412.667C413.139 141.667 413.535 141.826 413.854 142.146C414.174 142.465 414.333 142.861 414.333 143.333V150C414.333 150.472 414.174 150.868 413.854 151.188C413.535 151.507 413.139 151.667 412.667 151.667H408.5ZM409.333 149.167H411.833V144.167H409.333V149.167ZM391 151.667V147.5C391 147.028 391.16 146.632 391.479 146.313C391.799 145.993 392.194 145.833 392.667 145.833H396V144.167H391V141.667H396.833C397.306 141.667 397.701 141.826 398.021 142.146C398.34 142.465 398.5 142.861 398.5 143.333V145.833C398.5 146.306 398.34 146.701 398.021 147.021C397.701 147.34 397.306 147.5 396.833 147.5H393.5V149.167H398.5V151.667H391ZM401.417 145V142.5H403.917V145H401.417ZM401.417 150.833V148.333H403.917V150.833H401.417ZM389.333 160C388.417 160 387.632 159.674 386.979 159.021C386.326 158.368 386 157.583 386 156.667V136.667C386 135.75 386.326 134.965 386.979 134.313C387.632 133.66 388.417 133.333 389.333 133.333H394.333V130H397.667V133.333H407.667V130H411V133.333H416C416.917 133.333 417.701 133.66 418.354 134.313C419.007 134.965 419.333 135.75 419.333 136.667V156.667C419.333 157.583 419.007 158.368 418.354 159.021C417.701 159.674 416.917 160 416 160H389.333ZM389.333 156.667H401.417V154.167H403.917V156.667H416V136.667H403.917V139.167H401.417V136.667H389.333V156.667Z" fill="black"/>
</g>
<g id="Vector">
<path d="M210.783 268.284C209.906 264.396 213.464 260.965 217.308 261.992L232.298 265.997C233.191 266.236 234.132 266.236 235.025 265.997L250.015 261.992C253.859 260.965 257.417 264.396 256.54 268.284L238.823 346.866C237.581 352.378 229.742 352.378 228.5 346.866L210.783 268.284Z" fill="#1F2C4F"/>
<path d="M234.95 198.631C234.545 200.793 231.455 200.793 231.05 198.631L221.592 148.218C221.485 147.649 221.631 147.062 221.992 146.609L231.45 134.747C232.244 133.751 233.756 133.751 234.55 134.747L244.008 146.609C244.369 147.062 244.515 147.649 244.408 148.218L234.95 198.631Z" fill="#FFC700"/>
<path d="M201.502 215.725C203.167 217.157 201.622 219.838 199.552 219.11L151.25 202.11C150.705 201.918 150.27 201.498 150.06 200.959L144.536 186.821C144.072 185.633 144.828 184.321 146.087 184.13L161.068 181.854C161.639 181.767 162.22 181.934 162.658 182.311L201.502 215.725Z" fill="#FFC700"/>
<path d="M264.498 256.681C262.833 255.249 264.378 252.568 266.449 253.296L314.75 270.296C315.295 270.488 315.73 270.908 315.94 271.447L321.464 285.585C321.928 286.773 321.172 288.085 319.913 288.276L304.932 290.552C304.361 290.639 303.78 290.472 303.342 290.095L264.498 256.681Z" fill="#FFC700"/>
<path d="M199.551 253.296C201.622 252.568 203.167 255.249 201.502 256.681L162.658 290.095C162.22 290.472 161.639 290.639 161.068 290.552L146.087 288.276C144.828 288.085 144.072 286.773 144.536 285.585L150.06 271.447C150.27 270.908 150.705 270.488 151.25 270.296L199.551 253.296Z" fill="#FFC700"/>
<path d="M266.449 219.11C264.378 219.838 262.833 217.157 264.498 215.725L303.342 182.311C303.78 181.934 304.361 181.767 304.932 181.854L319.913 184.13C321.172 184.321 321.928 185.633 321.464 186.821L315.94 200.959C315.73 201.498 315.295 201.918 314.75 202.11L266.449 219.11Z" fill="#FFC700"/>
<path d="M215.94 202.688C216.668 204.763 213.992 206.311 212.562 204.642L179.215 165.721C178.838 165.282 178.672 164.7 178.758 164.128L181.03 149.117C181.221 147.856 182.53 147.098 183.715 147.563L197.825 153.097C198.363 153.308 198.783 153.744 198.974 154.29L215.94 202.688Z" fill="#FFC700"/>
<path d="M195.503 234.249C197.66 234.655 197.66 237.751 195.503 238.157L145.19 247.634C144.622 247.741 144.036 247.595 143.584 247.233L131.746 237.757C130.751 236.961 130.751 235.445 131.746 234.649L143.584 225.173C144.036 224.811 144.622 224.665 145.19 224.772L195.503 234.249Z" fill="#FFC700"/>
<path d="M270.497 238.157C268.34 237.751 268.34 234.655 270.497 234.249L320.81 224.772C321.378 224.665 321.964 224.811 322.416 225.173L334.254 234.649C335.249 235.445 335.249 236.96 334.254 237.757L322.416 247.233C321.964 247.595 321.378 247.741 320.81 247.634L270.497 238.157Z" fill="#FFC700"/>
<path d="M253.438 204.642C252.008 206.311 249.332 204.763 250.06 202.688L267.025 154.29C267.217 153.744 267.636 153.308 268.174 153.097L282.284 147.563C283.47 147.098 284.779 147.856 284.97 149.117L287.241 164.128C287.328 164.7 287.161 165.282 286.785 165.721L253.438 204.642Z" fill="#FFC700"/>
<path d="M253.507 236.203C253.507 247.185 244.622 256.088 233.661 256.088C222.701 256.088 213.816 247.185 213.816 236.203C213.816 225.221 222.701 216.318 233.661 216.318C244.622 216.318 253.507 225.221 253.507 236.203Z" fill="#C61718"/>
</g>
</g>
</g>
</svg>
